<svg width="29" height="12" viewBox="0 0 29 12" fill="none" xmlns="http://www.w3.org/2000/svg">
<path d="M6.96196 2.31958L6.96543 2.3262L6.9691 2.33271C7.40648 3.10955 7.65186 4.14676 7.65186 5.42725C7.65186 7.14067 7.26652 8.43617 6.61897 9.29097C5.98481 10.1281 5.06572 10.5889 3.86719 10.5889C2.38494 10.5889 1.26211 9.84981 0.806838 8.71045H1.68895C2.08566 9.52631 2.90925 10.0068 3.88184 10.0068C4.83799 10.0068 5.60669 9.54791 6.11359 8.75183C6.60563 7.97908 6.84277 6.90796 6.84277 5.64697V5.14697H6.34277H6.34277H6.34276H6.34276H6.34275H6.34274H6.34274H6.34273H6.34272H6.3427H6.34269H6.34268H6.34266H6.34264H6.34263H6.34261H6.34259H6.34257H6.34254H6.34252H6.3425H6.34247H6.34244H6.34242H6.34239H6.34236H6.34233H6.3423H6.34226H6.34223H6.34219H6.34216H6.34212H6.34208H6.34204H6.342H6.34196H6.34192H6.34188H6.34183H6.34179H6.34174H6.34169H6.34164H6.3416H6.34155H6.34149H6.34144H6.34139H6.34133H6.34128H6.34122H6.34117H6.34111H6.34105H6.34099H6.34093H6.34087H6.3408H6.34074H6.34067H6.34061H6.34054H6.34047H6.34041H6.34034H6.34027H6.3402H6.34012H6.34005H6.33998H6.3399H6.33983H6.33975H6.33967H6.33959H6.33951H6.33943H6.33935H6.33927H6.33919H6.33911H6.33902H6.33894H6.33885H6.33876H6.33868H6.33859H6.3385H6.33841H6.33832H6.33823H6.33813H6.33804H6.33795H6.33785H6.33775H6.33766H6.33756H6.33746H6.33736H6.33726H6.33716H6.33706H6.33696H6.33686H6.33675H6.33665H6.33655H6.33644H6.33633H6.33623H6.33612H6.33601H6.3359H6.33579H6.33568H6.33557H6.33546H6.33534H6.33523H6.33512H6.335H6.33488H6.33477H6.33465H6.33453H6.33442H6.3343H6.33418H6.33406H6.33394H6.33381H6.33369H6.33357H6.33345H6.33332H6.3332H6.33307H6.33294H6.33282H6.33269H6.33256H6.33243H6.3323H6.33217H6.33204H6.33191H6.33178H6.33165H6.33152H6.33138H6.33125H6.33112H6.33098H6.33085H6.33071H6.33057H6.33044H6.3303H6.33016H6.33002H6.32988H6.32974H6.3296H6.32946H6.32932H6.32918H6.32903H6.32889H6.32875H6.3286H6.32846H6.32831H6.32817H6.32802H6.32788H6.32773H6.32758H6.32743H6.32729H6.32714H6.32699H6.32684H6.32669H6.32654H6.32639H6.32624H6.32608H6.32593H6.32578H6.32563H6.32547H6.32532H6.32516H6.32501H6.32485H6.3247H6.32454H6.32439H6.32423H6.32407H6.32392H6.32376H6.3236H6.32344H6.32328H6.32312H6.32296H6.3228H6.32264H6.32248H6.32232H6.32216H6.322H6.32184H6.32167H6.32151H6.32135H6.32119H6.32102H6.32086H6.32069H6.32053H6.32036H6.3202H6.32003H6.31987H6.3197H6.31954H6.31937H6.3192H6.31904H6.31887H6.3187H6.31853H6.31837H6.3182H6.31803H6.31786H6.31769H6.31752H6.31735H6.31718H6.31702H6.31685H6.31668H6.3165H6.31633H6.31616H6.31599H6.31582H6.31565H6.31548H6.31531H6.31514H6.31496H6.31479H6.31462H6.31445H6.31427H6.3141H6.31393H6.31376H6.31358H6.31341H6.31324H6.31306H6.31289H6.31272H6.31254H6.31237H6.31219H6.31202H6.31185H6.31167H6.3115H6.31132H6.31115H6.31097H6.3108H6.31062H6.31045H6.31028H6.3101H6.30993H6.30975H6.30958H6.3094H6.30923H6.30905H6.30887H6.3087H6.30852H6.30835H6.30817H6.308H6.30782H6.30765H6.30747H6.3073H6.30712H6.30695H6.30677H6.3066H6.30642H6.30625H6.30607H6.3059H6.30572H6.30555H6.30537H6.3052H6.30502H6.30485H6.30467H6.3045H6.30432H6.30415H6.30398H6.3038H6.30363H6.30345H6.30328H6.30311H6.30293H6.30276H6.30258H6.30241H6.30224H6.30206H6.30189H6.30172H6.30155H6.30137H6.3012H6.30103H6.30086H6.30068H6.30051H6.30034H6.30017H6.3H6.29983H6.29966H6.29949H6.29932H6.29914H6.29897H6.2988H6.29864H6.29847H6.2983H6.29813H6.29796H6.29779H6.29762H6.29745H6.29729H6.29712H6.29695H6.29678H6.29662H6.29645H6.29628H6.29612H6.29595H6.29578H6.29562H6.29545H6.29529H6.29512H6.29496H6.2948H6.29463H6.29447H6.29431H6.29414H6.29398H6.29382H6.29366H6.2935H6.29333H6.29317H6.29301H6.29285H6.29269H6.29253H6.29238H6.29222H6.29206H6.2919H6.29174H6.29159H6.29143H6.29127H6.29112H6.29096H6.29081H6.29065H6.2905H6.29034H6.29019H6.29004H6.28988H6.28973H6.28958H6.28943H6.28928H6.28912H6.28897H6.28883H6.28868H6.28853H6.28838H6.28823H6.28808H6.28794H6.28779H6.28764H6.2875H6.28735H6.28721H6.28706H6.28692H6.28678H6.28663H6.28649H6.28635H6.28621H6.28607H6.28593H6.28579H6.28565H6.28551H6.28537H6.28524H6.2851H6.28496H6.28483H6.28469H6.28456H6.28442H6.28429H6.28416H6.28403H6.28389H6.28376H6.28363H6.2835H6.28337H6.28324H6.28312H6.28299H6.28286H6.28273H6.28261H6.28248H6.28236H6.28224H6.28211H6.28199H6.28187H6.28175H6.28163H6.28151H6.28139H6.28127H6.28115H6.28103H6.28092H6.2808H6.28069H6.28057H6.28046H6.28034H6.28023H6.28012H6.28001H6.2799H6.27979H6.27968H6.27957H6.27947H6.27936H6.27925H6.27915H6.27904H6.27894H6.27884H6.27873H6.27863H6.27853H6.27843H6.27833H6.27823H6.27814H6.27804H6.27794H6.27785H6.27776H6.27766H6.27757H6.27748H6.27739H6.2773H6.27721H6.27712H6.27703H6.27694H6.27686H6.27681H6.27677H6.27672H6.27668H6.27663H6.27659H6.27654H6.2765H6.27645H6.2764H6.27635H6.2763H6.27626H6.27621H6.27616H6.27611H6.27606H6.276H6.27595H6.2759H6.27585H6.27579H6.27574H6.27569H6.27563H6.27558H6.27552H6.27547H6.27541H6.27535H6.27529H6.27524H6.27518H6.27512H6.27506H6.275H6.27494H6.27488H6.27482H6.27476H6.2747H6.27464H6.27458H6.27451H6.27445H6.27439H6.27432H6.27426H6.27419H6.27413H6.27406H6.274H6.27393H6.27386H6.2738H6.27373H6.27366H6.27359H6.27353H6.27346H6.27339H6.27332H6.27325H6.27318H6.27311H6.27304H6.27297H6.27289H6.27282H6.27275H6.27268H6.2726H6.27253H6.27246H6.27238H6.27231H6.27223H6.27216H6.27208H6.27201H6.27193H6.27186H6.27178H6.2717H6.27163H6.27155H6.27147H6.27139H6.27131H6.27123H6.27116H6.27108H6.271H6.27092H6.27084H6.27076H6.27068H6.27059H6.27051H6.27043H6.27035H6.27027H6.27018H6.2701H6.27002H6.26994H6.26985H6.26977H6.26968H6.2696H6.26952H6.26943H6.26935H6.26926H6.26918H6.26909H6.269H6.26892H6.26883H6.26874H6.26866H6.26857H6.26848H6.2684H6.26831H6.26822H6.26813H6.26804H6.26795H6.26787H6.26778H6.26769H6.2676H6.26751H6.26742H6.26733H6.26724H6.26715H6.26706H6.26697H6.26688H6.26678H6.26669H6.2666H6.26651H6.26642H6.26633H6.26623H6.26614H6.26605H6.26596H6.26586H6.26577H6.26568H6.26558H6.26549H6.2654H6.2653H6.26521H6.26512H6.26502H6.26493H6.26483H6.26474H6.26464H6.26455H6.26445H6.26436H6.26426H6.26417H6.26407H6.26398H6.26388H6.26379H6.26369H6.2636H6.2635H6.2634H6.26331H6.26321H6.26311H6.26302H6.26292H6.26283H6.26273H6.26263H6.26254H6.26244H6.26234H6.26224H6.26215H6.26205H6.26195H6.26186H6.26176H6.26166H6.26156H6.26147H6.26137H6.26127H6.26117H6.26107H6.26098H6.26088H6.26078H6.26068H6.26059H6.26049H6.26039H6.26029H6.26019H6.2601H6.26H6.2599H6.2598H6.2597H6.25961H6.25951H6.25941H6.25931H6.25921H6.25911H6.25902H6.25892H6.25882H6.25872H6.25862H6.25853H6.25843H6.25833H6.25823H6.25813H6.25804H6.25794H6.25784H6.25774H6.25765H6.25755H6.25745H6.25735H6.25726H6.25716H6.25706H6.25696H6.25687H6.25677H6.25667H6.25657H6.25648H6.25638H6.25628H6.25619H6.25609H6.25599H6.2559H6.2558H6.2557H6.25561H6.25551H6.25541H6.25532H6.25522H6.25512H6.25503H6.25493H6.25484H6.25474H6.25465H6.25455H6.25446H6.25436H6.25427H6.25417H6.25408H6.25398H6.25389H6.25379H6.2537H6.2536H6.25351H6.25342H6.25332H6.25323H6.25314H6.25304H6.25295H6.25286H6.25276H6.25267H6.25258H6.25249H6.25239H6.2523H6.25221H6.25212H6.25203H6.25194H6.25184H6.25175H6.25166H6.25157H6.25148H6.25139H6.2513H6.25121H6.25112H6.25103H6.25094H6.25086H6.25077H6.25068H6.25059H6.2505H6.25041H6.25033H6.25024H6.25015H6.25006H6.24998H6.24989H6.2498H6.24972H6.24963H6.24955H6.24946H6.24938H6.24929H6.24921H6.24912H6.24904H6.24895H6.24887H6.24879H6.2487H6.24862H6.24854H6.24846H6.24837H6.24829H6.24821H6.24813H6.24805H6.24797H6.24789H6.24781H6.24773H6.24765H6.24757H6.24749H6.24741H6.24733H6.24725H6.24718H6.2471H6.24702H6.24694H6.24687H6.24679H6.24671H6.24664H6.24656H6.24649H6.24641H6.24634H6.24627H6.24619H6.24612H6.24605H6.24597H6.2459H6.24583H6.24576H6.24569H6.24562H6.24554H6.24547H6.2454H6.24534H6.24527H6.2452H6.24513H6.24506H6.24499H6.24493H6.24486H6.24479H6.24473H6.24466H6.2446H6.24453H6.24447H6.2444H6.24434H6.24428H6.24421H6.24415H6.24409H6.24403H6.24396H6.2439H6.24384H6.24378H6.24372H6.24366H6.24361H6.24355H6.24349H6.24343H6.24337H6.24332H6.24326H6.24321H6.24315H6.24309H6.24304H6.24299H6.24293H6.24288H6.24283H6.24277H6.24272H6.24267H6.24262H6.24257H6.24252H6.24247H6.24242H6.24237H6.24233H6.24228H6.24223H6.24218H6.24214H6.24209H6.24205H6.242H6.24196H6.24192H6.24187H6.24183H6.24179H6.24175H6.2417H6.24166H6.24162H6.24159H6.24155H6.24151H6.24147H6.24143H6.24139H6.24136H6.24132H6.24129H6.24125H6.24122H6.24119H6.24115H6.24112H6.24109H6.24106H6.24102H6.24099H6.24096H6.24094H6.24091H6.24088H6.24085H6.24082H6.2408H6.24077H6.24075H6.24072H6.2407H6.24067H6.24065H6.24063H6.24061H6.24059H6.24057H6.24055H6.24053H6.24051H6.24049H6.24047H6.24045H6.24044H6.24042H6.24041H6.24039H6.24038H6.24037H6.24035H6.24034H6.24033H6.24032H6.24031H6.2403H6.24029H6.24028H6.24027H6.24027H6.24026H6.24026H6.24025H6.24025H6.24024H6.24023H6.21826H6.08598C6.36654 4.74042 6.52783 4.24032 6.52783 3.68408C6.52783 2.21869 5.40035 1.07471 3.94043 1.07471C2.4874 1.07471 1.35303 2.19714 1.35303 3.65479C1.35303 5.1406 2.44232 6.22754 3.93311 6.22754C4.61007 6.22754 5.21289 6.00013 5.6667 5.6119C5.23639 6.31154 4.46699 6.729 3.479 6.729C1.74584 6.729 0.5 5.47825 0.5 3.71338C0.5 1.84675 1.87623 0.5 3.92578 0.5C5.2882 0.5 6.3392 1.13184 6.96196 2.31958ZM21.0797 8.3623H20.5797V8.8623V10.3325H19.7706V8.8623V8.3623H19.2706H14.607V7.30543C15.5244 5.63408 16.9244 3.41613 18.682 0.763672H20.5797V7.26562V7.76562H21.0797H22.0079V8.3623H21.0797ZM15.4227 6.9529L15.3575 7.0677V7.19971V7.30957V7.80957H15.8575H19.2999H19.7999V7.30957V1.80176V1.30176H19.2999H19.1974H18.9319L18.7832 1.5216C17.7656 3.02599 16.66 4.77294 15.4227 6.9529ZM24.2826 3.05181V2.45754L26.7015 0.763672H27.9262V10.3325H27.0365V2.16797V1.66797H26.5365H26.412H26.254L26.1247 1.75873L24.2826 3.05181ZM11.9148 9.8291C11.9148 10.2142 11.6605 10.4863 11.243 10.4863C10.8306 10.4863 10.5711 10.2121 10.5711 9.8291C10.5711 9.44083 10.8285 9.17188 11.243 9.17188C11.4698 9.17188 11.6319 9.24972 11.7363 9.3541C11.8412 9.45901 11.9148 9.61774 11.9148 9.8291ZM11.9148 4.34326C11.9148 4.7242 11.6647 4.99316 11.243 4.99316C10.8264 4.99316 10.5711 4.72212 10.5711 4.34326C10.5711 3.95499 10.8285 3.68604 11.243 3.68604C11.4698 3.68604 11.6319 3.76388 11.7363 3.86826C11.8412 3.97317 11.9148 4.1319 11.9148 4.34326Z" stroke="black"/>
</svg>
