<svg width="25" height="27" viewBox="0 0 25 27" fill="none" xmlns="http://www.w3.org/2000/svg">
<path d="M20.1875 4.1125L17.025 6.5375L18.1625 10.3625L14.875 8.1L11.5875 10.3625L12.725 6.5375L9.5625 4.1125L13.55 4L14.875 0.25L16.2 4L20.1875 4.1125ZM24.5625 12.75L22.5125 14.3125L23.25 16.7875L21.125 15.325L19 16.7875L19.7375 14.3125L17.6875 12.75L20.2625 12.6875L21.125 10.25L21.9875 12.6875L24.5625 12.75ZM21.7125 18.9375C22.75 18.8375 23.8625 20.3125 23.2 21.25C22.8 21.8125 22.375 22.3375 21.85 22.8375C16.9625 27.75 9.05 27.75 4.175 22.8375C-0.7125 17.9625 -0.7125 10.0375 4.175 5.1625C4.675 4.6625 5.2 4.2125 5.7625 3.8125C6.7 3.15 8.175 4.2625 8.075 5.3C7.7375 8.875 8.9375 12.5875 11.6875 15.325C12.987 16.6315 14.5603 17.6333 16.294 18.258C18.0276 18.8827 19.8783 19.1148 21.7125 18.9375ZM19.6625 21.4625C15.9929 21.2515 12.5263 19.7093 9.9125 17.125C7.2 14.3875 5.75 10.875 5.55 7.35C2.0375 11.275 2.175 17.3 5.9375 21.075C9.7125 24.8375 15.7375 24.975 19.6625 21.4625Z" fill="white"/>
</svg>
