<svg width="28" height="28" viewBox="0 0 28 28" fill="none" xmlns="http://www.w3.org/2000/svg">
<path d="M14 20.25C12.2708 20.25 10.7967 19.6404 9.5775 18.4213C8.35833 17.2021 7.74917 15.7283 7.75 14C7.75 12.2708 8.35958 10.7967 9.57875 9.5775C10.7979 8.35834 12.2717 7.74917 14 7.75C15.7292 7.75 17.2033 8.35959 18.4225 9.57875C19.6417 10.7979 20.2508 12.2717 20.25 14C20.25 15.7292 19.6404 17.2033 18.4213 18.4225C17.2021 19.6417 15.7283 20.2508 14 20.25ZM1.5 15.25C1.14583 15.25 0.84875 15.13 0.60875 14.89C0.36875 14.65 0.249167 14.3533 0.250001 14C0.250001 13.6458 0.37 13.3488 0.61 13.1088C0.850001 12.8688 1.14667 12.7492 1.5 12.75H4C4.35417 12.75 4.65125 12.87 4.89125 13.11C5.13125 13.35 5.25083 13.6467 5.25 14C5.25 14.3542 5.13 14.6513 4.89 14.8913C4.65 15.1313 4.35333 15.2508 4 15.25H1.5ZM24 15.25C23.6458 15.25 23.3488 15.13 23.1088 14.89C22.8688 14.65 22.7492 14.3533 22.75 14C22.75 13.6458 22.87 13.3488 23.11 13.1088C23.35 12.8688 23.6467 12.7492 24 12.75H26.5C26.8542 12.75 27.1513 12.87 27.3913 13.11C27.6313 13.35 27.7508 13.6467 27.75 14C27.75 14.3542 27.63 14.6513 27.39 14.8913C27.15 15.1313 26.8533 15.2508 26.5 15.25H24ZM14 5.25C13.6458 5.25 13.3488 5.13 13.1088 4.89C12.8688 4.65 12.7492 4.35334 12.75 4V1.5C12.75 1.14584 12.87 0.848754 13.11 0.608754C13.35 0.368754 13.6467 0.249171 14 0.250004C14.3542 0.250004 14.6513 0.370004 14.8913 0.610004C15.1313 0.850004 15.2508 1.14667 15.25 1.5V4C15.25 4.35417 15.13 4.65125 14.89 4.89125C14.65 5.13125 14.3533 5.25084 14 5.25ZM14 27.75C13.6458 27.75 13.3488 27.63 13.1088 27.39C12.8688 27.15 12.7492 26.8533 12.75 26.5V24C12.75 23.6458 12.87 23.3488 13.11 23.1088C13.35 22.8688 13.6467 22.7492 14 22.75C14.3542 22.75 14.6513 22.87 14.8913 23.11C15.1313 23.35 15.2508 23.6467 15.25 24V26.5C15.25 26.8542 15.13 27.1513 14.89 27.3913C14.65 27.6313 14.3533 27.7508 14 27.75ZM6.0625 7.8125L4.71875 6.5C4.46875 6.27084 4.34875 5.97917 4.35875 5.625C4.36875 5.27084 4.48875 4.96875 4.71875 4.71875C4.96875 4.46875 5.27083 4.34375 5.625 4.34375C5.97917 4.34375 6.27083 4.46875 6.5 4.71875L7.8125 6.0625C8.04167 6.3125 8.15625 6.60417 8.15625 6.9375C8.15625 7.27084 8.04167 7.5625 7.8125 7.8125C7.58333 8.0625 7.29708 8.1825 6.95375 8.1725C6.61042 8.1625 6.31333 8.0425 6.0625 7.8125ZM21.5 23.2813L20.1875 21.9375C19.9583 21.6875 19.8438 21.3904 19.8438 21.0463C19.8438 20.7021 19.9583 20.4158 20.1875 20.1875C20.4167 19.9375 20.7033 19.8179 21.0475 19.8288C21.3917 19.8396 21.6883 19.9592 21.9375 20.1875L23.2812 21.5C23.5312 21.7292 23.6513 22.0208 23.6413 22.375C23.6313 22.7292 23.5112 23.0313 23.2812 23.2813C23.0312 23.5313 22.7292 23.6563 22.375 23.6563C22.0208 23.6563 21.7292 23.5313 21.5 23.2813ZM20.1875 7.8125C19.9375 7.58334 19.8175 7.29709 19.8275 6.95375C19.8375 6.61042 19.9575 6.31334 20.1875 6.0625L21.5 4.71875C21.7292 4.46875 22.0208 4.34875 22.375 4.35875C22.7292 4.36875 23.0312 4.48875 23.2812 4.71875C23.5312 4.96875 23.6563 5.27084 23.6563 5.625C23.6563 5.97917 23.5312 6.27084 23.2812 6.5L21.9375 7.8125C21.6875 8.04167 21.3958 8.15625 21.0625 8.15625C20.7292 8.15625 20.4375 8.04167 20.1875 7.8125ZM4.71875 23.2813C4.46875 23.0313 4.34375 22.7292 4.34375 22.375C4.34375 22.0208 4.46875 21.7292 4.71875 21.5L6.0625 20.1875C6.3125 19.9583 6.60917 19.8438 6.9525 19.8438C7.29583 19.8438 7.5825 19.9583 7.8125 20.1875C8.0625 20.4167 8.1825 20.7033 8.1725 21.0475C8.1625 21.3917 8.0425 21.6883 7.8125 21.9375L6.5 23.2813C6.27083 23.5313 5.97917 23.6513 5.625 23.6413C5.27083 23.6313 4.96875 23.5113 4.71875 23.2813Z" fill="white"/>
</svg>
