<svg width="24" height="24" viewBox="0 0 24 24" fill="none" xmlns="http://www.w3.org/2000/svg">
<path d="M22.9492 3.94922C23.6816 3.2168 23.6816 2.02734 22.9492 1.29492C22.2168 0.5625 21.0273 0.5625 20.2949 1.29492L1.54492 20.0449C0.8125 20.7773 0.8125 21.9668 1.54492 22.6992C2.27734 23.4316 3.4668 23.4316 4.19922 22.6992L22.9492 3.94922ZM8.5 4.5C8.5 3.50544 8.10491 2.55161 7.40165 1.84835C6.69839 1.14509 5.74456 0.75 4.75 0.75C3.75544 0.75 2.80161 1.14509 2.09835 1.84835C1.39509 2.55161 1 3.50544 1 4.5C1 5.49456 1.39509 6.44839 2.09835 7.15165C2.80161 7.85491 3.75544 8.25 4.75 8.25C5.74456 8.25 6.69839 7.85491 7.40165 7.15165C8.10491 6.44839 8.5 5.49456 8.5 4.5ZM23.5 19.5C23.5 18.5054 23.1049 17.5516 22.4016 16.8484C21.6984 16.1451 20.7446 15.75 19.75 15.75C18.7554 15.75 17.8016 16.1451 17.0984 16.8484C16.3951 17.5516 16 18.5054 16 19.5C16 20.4946 16.3951 21.4484 17.0984 22.1516C17.8016 22.8549 18.7554 23.25 19.75 23.25C20.7446 23.25 21.6984 22.8549 22.4016 22.1516C23.1049 21.4484 23.5 20.4946 23.5 19.5Z" fill="#3A3B50" stroke="#3A3B50"/>
</svg>
