<svg width="69" height="15" viewBox="0 0 69 15" fill="none" xmlns="http://www.w3.org/2000/svg">
<path fill-rule="evenodd" clip-rule="evenodd" d="M12 4.5H13C13.5523 4.5 14 4.94772 14 5.5V11.5C14 12.0523 13.5523 12.5 13 12.5H12C11.4477 12.5 11 12.0523 11 11.5V5.5C11 4.94772 11.4477 4.5 12 4.5Z" fill="#D1D1D6"/>
<path fill-rule="evenodd" clip-rule="evenodd" d="M7.5 6.5H8.5C9.05228 6.5 9.5 6.94772 9.5 7.5V11.5C9.5 12.0523 9.05228 12.5 8.5 12.5H7.5C6.94772 12.5 6.5 12.0523 6.5 11.5V7.5C6.5 6.94772 6.94772 6.5 7.5 6.5Z" fill="#D1D1D6"/>
<path fill-rule="evenodd" clip-rule="evenodd" d="M3 8H4C4.55228 8 5 8.44772 5 9V11.5C5 12.0523 4.55228 12.5 4 12.5H3C2.44772 12.5 2 12.0523 2 11.5V9C2 8.44772 2.44772 8 3 8Z" fill="#D1D1D6"/>
<path fill-rule="evenodd" clip-rule="evenodd" d="M16.5 2.5H17.5C18.0523 2.5 18.5 2.94772 18.5 3.5V11.5C18.5 12.0523 18.0523 12.5 17.5 12.5H16.5C15.9477 12.5 15.5 12.0523 15.5 11.5V3.5C15.5 2.94772 15.9477 2.5 16.5 2.5Z" fill="#3C3C43" fill-opacity="0.18"/>
<path fill-rule="evenodd" clip-rule="evenodd" d="M12 4.5H13C13.5523 4.5 14 4.94772 14 5.5V11.5C14 12.0523 13.5523 12.5 13 12.5H12C11.4477 12.5 11 12.0523 11 11.5V5.5C11 4.94772 11.4477 4.5 12 4.5Z" fill="black"/>
<path fill-rule="evenodd" clip-rule="evenodd" d="M7.5 6.5H8.5C9.05228 6.5 9.5 6.94772 9.5 7.5V11.5C9.5 12.0523 9.05228 12.5 8.5 12.5H7.5C6.94772 12.5 6.5 12.0523 6.5 11.5V7.5C6.5 6.94772 6.94772 6.5 7.5 6.5Z" fill="black"/>
<path fill-rule="evenodd" clip-rule="evenodd" d="M3 8H4C4.55228 8 5 8.44772 5 9V11.5C5 12.0523 4.55228 12.5 4 12.5H3C2.44772 12.5 2 12.0523 2 11.5V9C2 8.44772 2.44772 8 3 8Z" fill="black"/>
<path d="M32.1327 9.43958C32.7722 9.43958 33.3936 9.60762 33.9411 9.92804L34.1629 10.0579C34.3311 10.1563 34.3607 10.3866 34.2228 10.5242L32.3287 12.413C32.2124 12.529 32.0238 12.529 31.9074 12.413L30.0255 10.5363C29.8882 10.3994 29.9168 10.1702 30.0836 10.0711L30.303 9.94064C30.8555 9.6121 31.4848 9.43958 32.1327 9.43958Z" fill="black"/>
<path d="M32.1327 5.96985C33.7235 5.96985 35.2509 6.49759 36.4952 7.47491L36.6711 7.61303C36.8113 7.72315 36.8236 7.93064 36.6974 8.05649L35.5666 9.18412C35.462 9.28842 35.2965 9.3004 35.1779 9.21226L35.0401 9.10981C34.1997 8.48523 33.1863 8.1502 32.1327 8.1502C31.0725 8.1502 30.0532 8.4894 29.2101 9.12115L29.0721 9.22453C28.9535 9.31339 28.7874 9.30169 28.6825 9.19709L27.5521 8.06986C27.4262 7.94429 27.4381 7.73732 27.5777 7.627L27.7525 7.48876C28.9998 6.50273 30.5342 5.96985 32.1327 5.96985Z" fill="black"/>
<path d="M32.1327 2.5C34.6574 2.5 37.0717 3.39057 38.9828 5.02294L39.1459 5.16228C39.2777 5.27488 39.2855 5.47558 39.1627 5.59797L38.0356 6.72195C37.9264 6.83084 37.7519 6.83847 37.6336 6.73952L37.494 6.62283C35.9894 5.36472 34.1035 4.68035 32.1327 4.68035C30.1552 4.68035 28.2633 5.36943 26.7564 6.63541L26.6168 6.7527C26.4985 6.8521 26.3236 6.84466 26.2142 6.73557L25.0873 5.61176C24.9647 5.48954 24.9722 5.28918 25.1036 5.17646L25.2661 5.03708C27.1795 3.39589 29.6006 2.5 32.1327 2.5Z" fill="black"/>
<path d="M68 5.5C68.5523 5.5 69 5.94772 69 6.5V8.5C69 9.05228 68.5523 9.5 68 9.5V5.5Z" fill="#3C3C43" fill-opacity="0.6"/>
<path fill-rule="evenodd" clip-rule="evenodd" d="M47 1.5H64C65.6569 1.5 67 2.84315 67 4.5V10.5C67 12.1569 65.6569 13.5 64 13.5H47C45.3431 13.5 44 12.1569 44 10.5V4.5C44 2.84315 45.3431 1.5 47 1.5ZM47 2.5C45.8954 2.5 45 3.39543 45 4.5V10.5C45 11.6046 45.8954 12.5 47 12.5H64C65.1046 12.5 66 11.6046 66 10.5V4.5C66 3.39543 65.1046 2.5 64 2.5H47Z" fill="#3C3C43" fill-opacity="0.6"/>
<rect x="46" y="3.5" width="19" height="8" rx="1" fill="black"/>
</svg>
