<svg width="54" height="21" viewBox="0 0 54 21" fill="none" xmlns="http://www.w3.org/2000/svg">
<path d="M19.962 7.31958L19.9654 7.3262L19.9691 7.33271C20.4065 8.10955 20.6519 9.14676 20.6519 10.4272C20.6519 12.1407 20.2665 13.4362 19.619 14.291C18.9848 15.1281 18.0657 15.5889 16.8672 15.5889C15.3849 15.5889 14.2621 14.8498 13.8068 13.7104H14.6889C15.0857 14.5263 15.9093 15.0068 16.8818 15.0068C17.838 15.0068 18.6067 14.5479 19.1136 13.7518C19.6056 12.9791 19.8428 11.908 19.8428 10.647V10.147H19.3428H19.3428H19.3428H19.3428H19.3428H19.3427H19.3427H19.3427H19.3427H19.3427H19.3427H19.3427H19.3427H19.3426H19.3426H19.3426H19.3426H19.3426H19.3425H19.3425H19.3425H19.3425H19.3424H19.3424H19.3424H19.3424H19.3423H19.3423H19.3423H19.3422H19.3422H19.3422H19.3421H19.3421H19.342H19.342H19.342H19.3419H19.3419H19.3418H19.3418H19.3417H19.3417H19.3416H19.3416H19.3415H19.3415H19.3414H19.3414H19.3413H19.3413H19.3412H19.3412H19.3411H19.341H19.341H19.3409H19.3409H19.3408H19.3407H19.3407H19.3406H19.3405H19.3405H19.3404H19.3403H19.3403H19.3402H19.3401H19.3401H19.34H19.3399H19.3398H19.3397H19.3397H19.3396H19.3395H19.3394H19.3394H19.3393H19.3392H19.3391H19.339H19.3389H19.3389H19.3388H19.3387H19.3386H19.3385H19.3384H19.3383H19.3382H19.3381H19.338H19.3379H19.3379H19.3378H19.3377H19.3376H19.3375H19.3374H19.3373H19.3372H19.3371H19.337H19.3369H19.3368H19.3367H19.3365H19.3364H19.3363H19.3362H19.3361H19.336H19.3359H19.3358H19.3357H19.3356H19.3355H19.3353H19.3352H19.3351H19.335H19.3349H19.3348H19.3347H19.3345H19.3344H19.3343H19.3342H19.3341H19.3339H19.3338H19.3337H19.3336H19.3334H19.3333H19.3332H19.3331H19.3329H19.3328H19.3327H19.3326H19.3324H19.3323H19.3322H19.332H19.3319H19.3318H19.3316H19.3315H19.3314H19.3313H19.3311H19.331H19.3308H19.3307H19.3306H19.3304H19.3303H19.3302H19.33H19.3299H19.3297H19.3296H19.3295H19.3293H19.3292H19.329H19.3289H19.3287H19.3286H19.3285H19.3283H19.3282H19.328H19.3279H19.3277H19.3276H19.3274H19.3273H19.3271H19.327H19.3268H19.3267H19.3265H19.3264H19.3262H19.3261H19.3259H19.3258H19.3256H19.3255H19.3253H19.3252H19.325H19.3249H19.3247H19.3245H19.3244H19.3242H19.3241H19.3239H19.3238H19.3236H19.3234H19.3233H19.3231H19.323H19.3228H19.3226H19.3225H19.3223H19.3222H19.322H19.3218H19.3217H19.3215H19.3213H19.3212H19.321H19.3209H19.3207H19.3205H19.3204H19.3202H19.32H19.3199H19.3197H19.3195H19.3194H19.3192H19.319H19.3189H19.3187H19.3185H19.3184H19.3182H19.318H19.3179H19.3177H19.3175H19.3174H19.3172H19.317H19.3168H19.3167H19.3165H19.3163H19.3162H19.316H19.3158H19.3157H19.3155H19.3153H19.3151H19.315H19.3148H19.3146H19.3144H19.3143H19.3141H19.3139H19.3138H19.3136H19.3134H19.3132H19.3131H19.3129H19.3127H19.3125H19.3124H19.3122H19.312H19.3118H19.3117H19.3115H19.3113H19.3111H19.311H19.3108H19.3106H19.3104H19.3103H19.3101H19.3099H19.3098H19.3096H19.3094H19.3092H19.309H19.3089H19.3087H19.3085H19.3083H19.3082H19.308H19.3078H19.3076H19.3075H19.3073H19.3071H19.3069H19.3068H19.3066H19.3064H19.3062H19.3061H19.3059H19.3057H19.3055H19.3054H19.3052H19.305H19.3048H19.3047H19.3045H19.3043H19.3041H19.304H19.3038H19.3036H19.3035H19.3033H19.3031H19.3029H19.3028H19.3026H19.3024H19.3022H19.3021H19.3019H19.3017H19.3015H19.3014H19.3012H19.301H19.3009H19.3007H19.3005H19.3003H19.3002H19.3H19.2998H19.2997H19.2995H19.2993H19.2991H19.299H19.2988H19.2986H19.2985H19.2983H19.2981H19.298H19.2978H19.2976H19.2975H19.2973H19.2971H19.2969H19.2968H19.2966H19.2964H19.2963H19.2961H19.2959H19.2958H19.2956H19.2955H19.2953H19.2951H19.295H19.2948H19.2946H19.2945H19.2943H19.2941H19.294H19.2938H19.2937H19.2935H19.2933H19.2932H19.293H19.2929H19.2927H19.2925H19.2924H19.2922H19.2921H19.2919H19.2917H19.2916H19.2914H19.2913H19.2911H19.291H19.2908H19.2907H19.2905H19.2903H19.2902H19.29H19.2899H19.2897H19.2896H19.2894H19.2893H19.2891H19.289H19.2888H19.2887H19.2885H19.2884H19.2882H19.2881H19.2879H19.2878H19.2876H19.2875H19.2874H19.2872H19.2871H19.2869H19.2868H19.2866H19.2865H19.2864H19.2862H19.2861H19.2859H19.2858H19.2857H19.2855H19.2854H19.2852H19.2851H19.285H19.2848H19.2847H19.2846H19.2844H19.2843H19.2842H19.284H19.2839H19.2838H19.2836H19.2835H19.2834H19.2832H19.2831H19.283H19.2829H19.2827H19.2826H19.2825H19.2824H19.2822H19.2821H19.282H19.2819H19.2817H19.2816H19.2815H19.2814H19.2813H19.2812H19.281H19.2809H19.2808H19.2807H19.2806H19.2805H19.2803H19.2802H19.2801H19.28H19.2799H19.2798H19.2797H19.2796H19.2795H19.2794H19.2793H19.2791H19.279H19.2789H19.2788H19.2787H19.2786H19.2785H19.2784H19.2783H19.2782H19.2781H19.278H19.2779H19.2778H19.2778H19.2777H19.2776H19.2775H19.2774H19.2773H19.2772H19.2771H19.277H19.2769H19.2769H19.2768H19.2768H19.2767H19.2767H19.2766H19.2766H19.2765H19.2765H19.2764H19.2764H19.2764H19.2763H19.2763H19.2762H19.2762H19.2761H19.2761H19.276H19.276H19.2759H19.2758H19.2758H19.2757H19.2757H19.2756H19.2756H19.2755H19.2755H19.2754H19.2754H19.2753H19.2752H19.2752H19.2751H19.2751H19.275H19.2749H19.2749H19.2748H19.2748H19.2747H19.2746H19.2746H19.2745H19.2744H19.2744H19.2743H19.2743H19.2742H19.2741H19.2741H19.274H19.2739H19.2739H19.2738H19.2737H19.2737H19.2736H19.2735H19.2735H19.2734H19.2733H19.2732H19.2732H19.2731H19.273H19.273H19.2729H19.2728H19.2728H19.2727H19.2726H19.2725H19.2725H19.2724H19.2723H19.2722H19.2722H19.2721H19.272H19.2719H19.2719H19.2718H19.2717H19.2716H19.2715H19.2715H19.2714H19.2713H19.2712H19.2712H19.2711H19.271H19.2709H19.2708H19.2708H19.2707H19.2706H19.2705H19.2704H19.2703H19.2703H19.2702H19.2701H19.27H19.2699H19.2699H19.2698H19.2697H19.2696H19.2695H19.2694H19.2693H19.2693H19.2692H19.2691H19.269H19.2689H19.2688H19.2687H19.2687H19.2686H19.2685H19.2684H19.2683H19.2682H19.2681H19.268H19.268H19.2679H19.2678H19.2677H19.2676H19.2675H19.2674H19.2673H19.2672H19.2671H19.2671H19.267H19.2669H19.2668H19.2667H19.2666H19.2665H19.2664H19.2663H19.2662H19.2661H19.266H19.266H19.2659H19.2658H19.2657H19.2656H19.2655H19.2654H19.2653H19.2652H19.2651H19.265H19.2649H19.2648H19.2647H19.2646H19.2645H19.2645H19.2644H19.2643H19.2642H19.2641H19.264H19.2639H19.2638H19.2637H19.2636H19.2635H19.2634H19.2633H19.2632H19.2631H19.263H19.2629H19.2628H19.2627H19.2626H19.2625H19.2624H19.2623H19.2622H19.2621H19.262H19.262H19.2619H19.2618H19.2617H19.2616H19.2615H19.2614H19.2613H19.2612H19.2611H19.261H19.2609H19.2608H19.2607H19.2606H19.2605H19.2604H19.2603H19.2602H19.2601H19.26H19.2599H19.2598H19.2597H19.2596H19.2595H19.2594H19.2593H19.2592H19.2591H19.259H19.2589H19.2588H19.2587H19.2586H19.2585H19.2584H19.2583H19.2582H19.2581H19.258H19.2579H19.2578H19.2577H19.2576H19.2575H19.2575H19.2574H19.2573H19.2572H19.2571H19.257H19.2569H19.2568H19.2567H19.2566H19.2565H19.2564H19.2563H19.2562H19.2561H19.256H19.2559H19.2558H19.2557H19.2556H19.2555H19.2554H19.2553H19.2552H19.2551H19.255H19.2549H19.2548H19.2547H19.2546H19.2546H19.2545H19.2544H19.2543H19.2542H19.2541H19.254H19.2539H19.2538H19.2537H19.2536H19.2535H19.2534H19.2533H19.2532H19.2531H19.253H19.2529H19.2529H19.2528H19.2527H19.2526H19.2525H19.2524H19.2523H19.2522H19.2521H19.252H19.2519H19.2518H19.2518H19.2517H19.2516H19.2515H19.2514H19.2513H19.2512H19.2511H19.251H19.2509H19.2509H19.2508H19.2507H19.2506H19.2505H19.2504H19.2503H19.2502H19.2502H19.2501H19.25H19.2499H19.2498H19.2497H19.2496H19.2495H19.2495H19.2494H19.2493H19.2492H19.2491H19.249H19.249H19.2489H19.2488H19.2487H19.2486H19.2485H19.2485H19.2484H19.2483H19.2482H19.2481H19.248H19.248H19.2479H19.2478H19.2477H19.2476H19.2476H19.2475H19.2474H19.2473H19.2473H19.2472H19.2471H19.247H19.2469H19.2469H19.2468H19.2467H19.2466H19.2466H19.2465H19.2464H19.2463H19.2463H19.2462H19.2461H19.246H19.246H19.2459H19.2458H19.2458H19.2457H19.2456H19.2455H19.2455H19.2454H19.2453H19.2453H19.2452H19.2451H19.2451H19.245H19.2449H19.2449H19.2448H19.2447H19.2447H19.2446H19.2445H19.2445H19.2444H19.2443H19.2443H19.2442H19.2441H19.2441H19.244H19.244H19.2439H19.2438H19.2438H19.2437H19.2437H19.2436H19.2435H19.2435H19.2434H19.2434H19.2433H19.2433H19.2432H19.2431H19.2431H19.243H19.243H19.2429H19.2429H19.2428H19.2428H19.2427H19.2427H19.2426H19.2426H19.2425H19.2425H19.2424H19.2424H19.2423H19.2423H19.2422H19.2422H19.2421H19.2421H19.242H19.242H19.242H19.2419H19.2419H19.2418H19.2418H19.2417H19.2417H19.2417H19.2416H19.2416H19.2415H19.2415H19.2415H19.2414H19.2414H19.2414H19.2413H19.2413H19.2413H19.2412H19.2412H19.2412H19.2411H19.2411H19.2411H19.241H19.241H19.241H19.2409H19.2409H19.2409H19.2409H19.2408H19.2408H19.2408H19.2407H19.2407H19.2407H19.2407H19.2407H19.2406H19.2406H19.2406H19.2406H19.2405H19.2405H19.2405H19.2405H19.2405H19.2405H19.2404H19.2404H19.2404H19.2404H19.2404H19.2404H19.2404H19.2403H19.2403H19.2403H19.2403H19.2403H19.2403H19.2403H19.2403H19.2403H19.2403H19.2403H19.2403H19.2402H19.2402H19.2402H19.2183H19.086C19.3665 9.74042 19.5278 9.24032 19.5278 8.68408C19.5278 7.21869 18.4003 6.07471 16.9404 6.07471C15.4874 6.07471 14.353 7.19714 14.353 8.65479C14.353 10.1406 15.4423 11.2275 16.9331 11.2275C17.6101 11.2275 18.2129 11.0001 18.6667 10.6119C18.2364 11.3115 17.467 11.729 16.479 11.729C14.7458 11.729 13.5 10.4782 13.5 8.71338C13.5 6.84675 14.8762 5.5 16.9258 5.5C18.2882 5.5 19.3392 6.13184 19.962 7.31958ZM34.0797 13.3623H33.5797V13.8623V15.3325H32.7706V13.8623V13.3623H32.2706H27.607V12.3054C28.5244 10.6341 29.9244 8.41613 31.682 5.76367H33.5797V12.2656V12.7656H34.0797H35.0079V13.3623H34.0797ZM28.4227 11.9529L28.3575 12.0677V12.1997V12.3096V12.8096H28.8575H32.2999H32.7999V12.3096V6.80176V6.30176H32.2999H32.1974H31.9319L31.7832 6.5216C30.7656 8.02599 29.66 9.77294 28.4227 11.9529ZM37.2826 8.05181V7.45754L39.7015 5.76367H40.9262V15.3325H40.0365V7.16797V6.66797H39.5365H39.412H39.254L39.1247 6.75873L37.2826 8.05181ZM24.9148 14.8291C24.9148 15.2142 24.6605 15.4863 24.243 15.4863C23.8306 15.4863 23.5711 15.2121 23.5711 14.8291C23.5711 14.4408 23.8285 14.1719 24.243 14.1719C24.4698 14.1719 24.6319 14.2497 24.7363 14.3541C24.8412 14.459 24.9148 14.6177 24.9148 14.8291ZM24.9148 9.34326C24.9148 9.7242 24.6647 9.99316 24.243 9.99316C23.8264 9.99316 23.5711 9.72212 23.5711 9.34326C23.5711 8.95499 23.8285 8.68604 24.243 8.68604C24.4698 8.68604 24.6319 8.76388 24.7363 8.86826C24.8412 8.97317 24.9148 9.1319 24.9148 9.34326Z" stroke="white"/>
</svg>
